<svg width="26" height="26" viewBox="0 0 26 26" fill="none" xmlns="http://www.w3.org/2000/svg">
<g clip-path="url(#clip0_102_420)">
<path d="M22.9008 19.778C22.5338 20.6259 22.0994 21.4063 21.5961 22.1238C20.9101 23.1019 20.3484 23.7789 19.9155 24.1549C19.2444 24.772 18.5254 25.0881 17.7555 25.1061C17.2028 25.1061 16.5362 24.9488 15.7603 24.6297C14.9819 24.3122 14.2665 24.1549 13.6123 24.1549C12.9263 24.1549 12.1905 24.3122 11.4035 24.6297C10.6154 24.9488 9.9804 25.1151 9.49493 25.1315C8.75662 25.163 8.0207 24.8379 7.28613 24.1549C6.81729 23.746 6.23087 23.045 5.52836 22.0519C4.77462 20.9913 4.15494 19.7616 3.66947 18.3595C3.14955 16.8452 2.88892 15.3787 2.88892 13.959C2.88892 12.3328 3.24032 10.9301 3.94418 9.75472C4.49735 8.8106 5.23327 8.06584 6.15433 7.51911C7.07538 6.97238 8.07058 6.69377 9.14233 6.67594C9.72875 6.67594 10.4978 6.85734 11.4534 7.21384C12.4064 7.57154 13.0183 7.75293 13.2865 7.75293C13.4871 7.75293 14.1669 7.54083 15.3192 7.11797C16.4089 6.72582 17.3286 6.56345 18.0821 6.62741C20.1237 6.79218 21.6575 7.597 22.6776 9.04696C20.8517 10.1533 19.9484 11.7029 19.9664 13.6907C19.9829 15.2391 20.5446 16.5276 21.6485 17.5507C22.1488 18.0255 22.7076 18.3925 23.3292 18.6531C23.1944 19.0441 23.0521 19.4186 22.9008 19.778V19.778ZM18.2184 1.35242C18.2184 2.56603 17.775 3.69917 16.8912 4.748C15.8247 5.99485 14.5347 6.71534 13.1359 6.60165C13.118 6.45605 13.1077 6.30282 13.1077 6.14179C13.1077 4.97673 13.6149 3.72988 14.5156 2.71041C14.9652 2.19423 15.5371 1.76504 16.2307 1.42267C16.9227 1.0854 17.5773 0.898883 18.1929 0.866943C18.2109 1.02918 18.2184 1.19144 18.2184 1.3524V1.35242Z" fill="white"/>
</g>
<defs>
<clipPath id="clip0_102_420">
<rect width="24.2667" height="24.2667" fill="white" transform="translate(0.866699 0.866669)"/>
</clipPath>
</defs>
</svg>
