<svg width="26" height="26" viewBox="0 0 26 26" fill="none" xmlns="http://www.w3.org/2000/svg">
<g clip-path="url(#clip0_102_412)">
<path d="M12.9999 10.7939V15.4928H19.5298C19.2431 17.004 18.3826 18.2835 17.0921 19.1439L21.0299 22.1993C23.3242 20.0816 24.6478 16.971 24.6478 13.2759C24.6478 12.4155 24.5706 11.5882 24.4272 10.794L12.9999 10.7939Z" fill="white"/>
<path d="M6.20002 15.3094L5.3119 15.9892L2.16821 18.4379C4.16469 22.3978 8.25663 25.1333 12.9996 25.1333C16.2755 25.1333 19.0221 24.0523 21.0296 22.1993L17.0918 19.1439C16.0108 19.8719 14.632 20.3131 12.9996 20.3131C9.84498 20.3131 7.16469 18.1843 6.20498 15.3164L6.20002 15.3094Z" fill="white"/>
<path d="M2.16818 7.56207C1.34095 9.19449 0.866699 11.0366 0.866699 12.9999C0.866699 14.9633 1.34095 16.8054 2.16818 18.4378C2.16818 18.4488 6.20534 15.3052 6.20534 15.3052C5.96268 14.5772 5.81924 13.8051 5.81924 12.9998C5.81924 12.1945 5.96268 11.4224 6.20534 10.6944L2.16818 7.56207Z" fill="white"/>
<path d="M12.9999 5.69794C14.7868 5.69794 16.3751 6.31562 17.6436 7.50691L21.1181 4.03241C19.0113 2.06905 16.2759 0.866669 12.9999 0.866669C8.25688 0.866669 4.16469 3.59115 2.16821 7.56207L6.20525 10.6947C7.16483 7.82677 9.84522 5.69794 12.9999 5.69794Z" fill="white"/>
</g>
<defs>
<clipPath id="clip0_102_412">
<rect width="24.2667" height="24.2667" fill="white" transform="translate(0.866699 0.866669)"/>
</clipPath>
</defs>
</svg>
