<svg width="26" height="24" viewBox="0 0 26 24" fill="none" xmlns="http://www.w3.org/2000/svg">
<path d="M12.9914 0.784729C6.2795 0.784729 0.866699 5.11492 0.866699 10.3718C0.866699 13.7841 3.11842 16.7719 6.49601 18.478L5.35283 22.7477C5.33127 22.8117 5.32796 22.8804 5.34325 22.9461C5.35855 23.0119 5.39185 23.0721 5.43943 23.12C5.50881 23.1812 5.59808 23.2151 5.69059 23.2153C5.76729 23.2091 5.84006 23.1788 5.89844 23.1287L10.8176 19.8118C11.5437 19.912 12.2757 19.964 13.0087 19.9676C19.7119 19.9676 25.1334 15.6374 25.1334 10.3718C25.1334 5.10626 19.6946 0.784729 12.9914 0.784729Z" fill="#392020"/>
</svg>
